<?xml version="1.0" encoding="utf-8"?>
<!-- Generator: Adobe Illustrator 26.1.0, SVG Export Plug-In . SVG Version: 6.00 Build 0)  -->
<svg version="1.1" id="Layer_1" xmlns="http://www.w3.org/2000/svg" xmlns:xlink="http://www.w3.org/1999/xlink" x="0px" y="0px"
	 viewBox="0 0 512 512" style="enable-background:new 0 0 512 512;" xml:space="preserve">
<style type="text/css">
	.st0{fill:url(#SVGID_1_);}
	.st1{fill:url(#SVGID_00000179634381594108163350000002394612364040443056_);}
</style>
<g>
	<linearGradient id="SVGID_1_" gradientUnits="userSpaceOnUse" x1="52.9579" y1="376.0555" x2="450.1009" y2="141.186">
		<stop  offset="0" style="stop-color:#3089F6"/>
		<stop  offset="1" style="stop-color:#7D1DB3"/>
	</linearGradient>
	<path class="st0" d="M473.16,283.89c15.03-19.06,15.04-36.29,0.05-55.28c-5.48-6.94-11.42-13.5-17.16-20.23
		c-2.99-3.5-3.83-7.51-2.97-11.97c1.56-8.08,3.16-16.15,4.59-24.25c4.12-23.43-4.42-39.1-26.41-48.01
		c-6.76-2.74-13.7-5.14-20.72-7.13c-8.28-2.35-13.06-7.48-15.56-15.65c-2.67-8.72-5.61-17.44-9.44-25.7
		c-7.4-15.97-21.03-23.68-38.52-21.86c-10.12,1.05-20.17,3.06-30.17,5.04c-5.96,1.18-10.77-0.39-15.16-4.27
		c-5.95-5.25-11.78-10.65-17.99-15.56c-19.22-15.19-36.4-15.18-55.64,0.03c-6.34,5.01-12.28,10.5-18.37,15.82
		c-4.29,3.75-9.03,5.27-14.78,4.02c-7.88-1.72-15.83-3.15-23.79-4.53c-22.64-3.9-38.32,4.66-47.03,25.94
		c-2.88,7.03-5.33,14.28-7.44,21.58c-2.34,8.1-7.32,13.07-15.39,15.22c-3.09,0.82-6.13,1.83-9.12,2.95
		c-5.83,2.2-11.82,4.13-17.37,6.91c-14.62,7.32-22.35,19.26-21.18,35.77c0.65,9.21,2.27,18.44,4.39,27.44
		c2.15,9.15,0.71,16.66-6.05,23.4c-4.74,4.72-9.09,9.89-13.23,15.16c-14.79,18.82-14.81,36.21,0.01,54.91
		c5.11,6.45,10.68,12.53,16.11,18.73c3.9,4.45,5.2,9.4,3.93,15.26c-1.74,8.02-3.47,16.07-4.55,24.2
		c-2.46,18.67,1.28,34.3,22.39,44.29c6.16,2.92,12.62,5.59,19.24,7.07c12.94,2.89,20.09,10.43,23.16,23.25
		c1.82,7.62,4.94,15.09,8.56,22.07c6.79,13.1,17.83,20.55,32.88,19.78c9.66-0.5,19.39-1.97,28.81-4.18
		c9.7-2.28,17.53-0.69,24.58,6.46c4.7,4.76,9.91,9.06,15.17,13.22c6.63,5.25,13.88,9.3,22.55,10.31
		c12.22,1.42,22.45-3.12,31.64-10.51c6.65-5.35,13-11.07,19.47-16.65c4.24-3.66,8.98-4.59,14.49-3.49
		c10.88,2.17,21.83,3.99,28.06,5.11c20.99,0.54,32.9-6.63,39.76-21.02c4.37-9.16,7.48-18.95,10.76-28.6
		c2.25-6.62,6.35-10.71,13-12.88c8.96-2.93,18.01-5.82,26.57-9.71c17.09-7.77,24.56-20.5,22.89-39.18
		c-0.88-9.82-2.88-19.58-4.88-29.26c-1.34-6.49,0.38-11.62,4.64-16.37C463.09,295.75,468.35,289.99,473.16,283.89z M255.72,398.46
		c-78.67-0.05-142.11-63.55-142.09-142.23c0.02-78.58,63.75-142.2,142.33-142.09c78.58,0.11,142.14,63.92,141.96,142.55
		C397.75,335.05,334.1,398.51,255.72,398.46z"/>
	
		<linearGradient id="SVGID_00000068660536171569519760000000156587720384666040_" gradientUnits="userSpaceOnUse" x1="53.0132" y1="376.1491" x2="450.1562" y2="141.2795">
		<stop  offset="0" style="stop-color:#3089F6"/>
		<stop  offset="1" style="stop-color:#7D1DB3"/>
	</linearGradient>
	<path style="fill:url(#SVGID_00000068660536171569519760000000156587720384666040_);" d="M255.52,146.46
		c-59.94,0.04-109.26,49.34-109.29,109.25c-0.03,60.69,49.33,110.16,109.88,110.14c60.22-0.02,109.51-49.32,109.5-109.51
		C365.61,195.54,316.39,146.42,255.52,146.46z M328.83,225.01c-17.7,17.7-35.36,35.43-53.03,53.15
		c-10.56,10.59-21.09,21.2-31.67,31.77c-8.87,8.86-17.71,8.82-26.67-0.12c-11.99-11.97-24.01-23.89-35.89-35.97
		c-5.19-5.27-6.25-12.36-3.29-18.57c2.99-6.25,9.51-10.38,16.41-9.08c3.79,0.72,7.81,2.82,10.65,5.46
		c8.6,7.97,16.68,16.51,26.24,26.11c1.25-1.87,1.99-3.48,3.16-4.64c23.84-23.85,47.75-47.64,71.61-71.47
		c4.75-4.75,10.38-6.41,16.75-4.55c6.04,1.77,9.8,6.05,11.12,12.22C335.57,215.58,333.21,220.63,328.83,225.01z"/>
</g>
</svg>
