<svg width="136" height="28" viewBox="0 0 136 28" fill="none" xmlns="http://www.w3.org/2000/svg">
<g clip-path="url(#clip0_25_313)">
<path d="M132.886 23.4751H133.269V23.7484H122.227V23.4751H122.582C122.964 23.4751 123.274 23.2837 123.511 22.9011C123.62 22.7189 123.675 22.5367 123.675 22.3545C123.675 22.1723 123.62 21.9809 123.511 21.7805L119.958 16.3414L114.628 23.7484C112.587 26.5727 110.31 27.9848 107.795 27.9848C107.322 27.9848 106.848 27.9393 106.374 27.8482V27.5749C107.777 27.4109 108.889 26.9918 109.709 26.3176C110.146 25.9532 110.519 25.5887 110.829 25.2243C111.121 24.8781 111.503 24.3861 111.977 23.7484L118.755 14.4829L113.535 6.47462C113.225 6.03731 112.824 5.66378 112.332 5.35402C111.84 5.04425 111.321 4.88937 110.774 4.88937H110.392V4.61605H121.379V4.88937H121.051C120.65 4.88937 120.341 5.0807 120.122 5.46334C119.994 5.64556 119.931 5.83688 119.931 6.03731C119.931 6.21953 119.994 6.40174 120.122 6.58395L123.21 11.3124L127.638 4.61605C128.495 3.34056 129.551 2.24729 130.809 1.33622C132.011 0.461603 133.314 0.024292 134.717 0.024292C134.954 0.024292 135.182 0.0425129 135.4 0.0789551V0.352273C134.344 0.370497 133.36 0.871582 132.449 1.85553C131.756 2.6026 131.036 3.52278 130.289 4.61605L124.495 13.2803L130.125 21.8898C130.545 22.5093 131.1 22.9649 131.793 23.2564C132.157 23.4022 132.522 23.4751 132.886 23.4751Z" fill="#5129A5"/>
<path d="M14.9112 5.19305C15.0529 5.41575 15.1744 5.71944 15.2756 6.10412C15.3971 6.46854 15.4579 6.85322 15.4579 7.25813C15.4579 8.04772 15.2858 8.61461 14.9416 8.95878C14.6176 9.28272 14.1723 9.44468 13.6054 9.44468H7.22792V12.8764H13.8787C14.0406 13.099 14.1723 13.3926 14.2735 13.757C14.3949 14.1215 14.4557 14.5062 14.4557 14.9111C14.4557 15.6804 14.2836 16.2372 13.9394 16.5813C13.6155 16.9053 13.1701 17.0672 12.6032 17.0672H7.28865V23.4751C7.06596 23.5358 6.71165 23.5965 6.22575 23.6573C5.7601 23.718 5.29443 23.7484 4.82878 23.7484C4.36314 23.7484 3.94809 23.7079 3.58367 23.6269C3.2395 23.5662 2.94592 23.4447 2.70297 23.2625C2.46002 23.0803 2.27781 22.8272 2.15633 22.5033C2.03486 22.1793 1.97412 21.7541 1.97412 21.2278V8.01735C1.97412 7.14677 2.22719 6.45843 2.73334 5.95227C3.2395 5.44612 3.92783 5.19305 4.79842 5.19305H14.9112ZM23.3473 20.3167C23.6915 20.3167 24.0661 20.2863 24.471 20.2256C24.8961 20.1446 25.2099 20.0434 25.4124 19.9219V17.4924L23.2258 17.6746C22.659 17.7151 22.1933 17.8366 21.8289 18.039C21.4645 18.2415 21.2822 18.5452 21.2822 18.9501C21.2822 19.355 21.4341 19.6891 21.7378 19.9523C22.0617 20.1952 22.5982 20.3167 23.3473 20.3167ZM23.1044 8.38177C24.1976 8.38177 25.1897 8.49314 26.0805 8.71583C26.9916 8.93853 27.7609 9.28272 28.3885 9.74837C29.0364 10.1938 29.5324 10.7708 29.8766 11.4794C30.2208 12.1678 30.3929 12.9877 30.3929 13.9393V20.7419C30.3929 21.2682 30.241 21.7036 29.9373 22.0477C29.6539 22.3717 29.3097 22.6551 28.9048 22.898C27.5888 23.6876 25.7363 24.0824 23.3473 24.0824C22.2743 24.0824 21.3025 23.9812 20.4319 23.7787C19.5816 23.5763 18.8426 23.2726 18.215 22.8677C17.6076 22.4628 17.1318 21.9465 16.7877 21.3189C16.4637 20.6912 16.3018 19.9624 16.3018 19.1323C16.3018 17.7354 16.7168 16.6623 17.5469 15.9132C18.377 15.1641 19.6626 14.6985 21.4037 14.5163L25.382 14.0911V13.8785C25.382 13.2914 25.1188 12.8764 24.5924 12.6334C24.0863 12.3702 23.3473 12.2386 22.3755 12.2386C21.6062 12.2386 20.8571 12.3196 20.1282 12.4816C19.3994 12.6435 18.7414 12.846 18.1543 13.0889C17.8911 12.9067 17.6684 12.6334 17.4862 12.269C17.3039 11.8843 17.2128 11.4895 17.2128 11.0846C17.2128 10.5582 17.3343 10.1432 17.5773 9.83948C17.8405 9.51553 18.2353 9.24221 18.7616 9.01952C19.3488 8.79682 20.0371 8.63484 20.8267 8.53362C21.6366 8.4324 22.3958 8.38177 23.1044 8.38177ZM42.903 14.2429C42.903 13.6153 42.7208 13.1598 42.3564 12.8764C42.0123 12.5727 41.5364 12.4208 40.929 12.4208C40.5242 12.4208 40.1194 12.4714 39.7143 12.5727C39.3298 12.6739 38.9958 12.8257 38.7121 13.0282V23.5662C38.5099 23.6269 38.1858 23.6876 37.7403 23.7484C37.3152 23.8091 36.87 23.8395 36.4041 23.8395C35.9589 23.8395 35.5538 23.8091 35.1893 23.7484C34.8453 23.6876 34.5516 23.5662 34.3087 23.3839C34.0657 23.2017 33.8735 22.9588 33.7316 22.6551C33.6102 22.3312 33.5494 21.9161 33.5494 21.41V12.2993C33.5494 11.7527 33.6609 11.3073 33.8835 10.9631C34.1264 10.619 34.4505 10.3051 34.8553 10.0217C35.5438 9.53579 36.4041 9.14099 37.4366 8.83731C38.4895 8.53362 39.6536 8.38177 40.929 8.38177C43.217 8.38177 44.9784 8.88793 46.2132 9.90021C47.4483 10.8923 48.0657 12.2791 48.0657 14.0607V23.5662C47.8634 23.6269 47.5394 23.6876 47.0939 23.7484C46.6687 23.8091 46.2235 23.8395 45.7577 23.8395C45.3125 23.8395 44.9073 23.8091 44.5429 23.7484C44.1988 23.6876 43.9052 23.5662 43.6622 23.3839C43.4193 23.2017 43.227 22.9588 43.0852 22.6551C42.9637 22.3312 42.903 21.9161 42.903 21.41V14.2429ZM63.7059 19.1931C63.7059 20.7317 63.1289 21.9364 61.9749 22.8069C60.8209 23.6775 59.1202 24.1128 56.8729 24.1128C56.0226 24.1128 55.233 24.0521 54.5042 23.9306C53.7753 23.8091 53.1479 23.6269 52.6213 23.3839C52.1154 23.1207 51.7103 22.7968 51.4066 22.4121C51.1232 22.0275 50.9814 21.5719 50.9814 21.0456C50.9814 20.5596 51.0828 20.1547 51.2851 19.8308C51.4877 19.4866 51.7306 19.2032 52.0139 18.9805C52.6013 19.3044 53.2694 19.598 54.0183 19.8612C54.7878 20.1041 55.6685 20.2256 56.6604 20.2256C57.2881 20.2256 57.764 20.1345 58.0877 19.9523C58.4321 19.7701 58.604 19.5271 58.604 19.2234C58.604 18.94 58.4825 18.7173 58.2395 18.5553C57.9966 18.3934 57.5918 18.2617 57.0248 18.1605L56.1137 17.9783C54.3523 17.6341 53.0365 17.0976 52.1658 16.3688C51.3155 15.6197 50.8903 14.5567 50.8903 13.18C50.8903 12.4309 51.0525 11.7527 51.3762 11.1453C51.7002 10.538 52.1558 10.0318 52.7428 9.62689C53.3301 9.22199 54.0286 8.90816 54.8382 8.68546C55.6685 8.46277 56.5796 8.35141 57.5714 8.35141C58.3206 8.35141 59.0191 8.41214 59.6669 8.53362C60.335 8.63484 60.912 8.79682 61.3979 9.01952C61.8838 9.24221 62.2686 9.53579 62.5519 9.90021C62.8355 10.2444 62.9771 10.6594 62.9771 11.1453C62.9771 11.611 62.886 12.0159 62.7038 12.3601C62.5419 12.684 62.3293 12.9573 62.066 13.18C61.9041 13.0788 61.6612 12.9776 61.3372 12.8764C61.0134 12.7549 60.659 12.6537 60.2743 12.5727C59.8898 12.4714 59.495 12.3905 59.0899 12.3297C58.7054 12.269 58.351 12.2386 58.027 12.2386C57.3588 12.2386 56.8426 12.3196 56.4782 12.4816C56.1137 12.6233 55.9315 12.8561 55.9315 13.18C55.9315 13.4027 56.0329 13.5849 56.2352 13.7267C56.4378 13.8684 56.8225 14 57.3892 14.1215L58.3306 14.3341C60.2743 14.7795 61.6512 15.397 62.4608 16.1865C63.2911 16.9559 63.7059 17.958 63.7059 19.1931ZM79.5338 5.19305C79.6756 5.41575 79.7971 5.71944 79.8982 6.10412C80.0197 6.46854 80.0805 6.85322 80.0805 7.25813C80.0805 8.04772 79.9083 8.61461 79.5642 8.95878C79.2401 9.28272 78.7949 9.44468 78.228 9.44468H71.8505V12.8764H78.5013C78.6631 13.099 78.7949 13.3926 78.8961 13.757C79.0175 14.1215 79.0783 14.5062 79.0783 14.9111C79.0783 15.6804 78.9061 16.2372 78.562 16.5813C78.238 16.9053 77.7928 17.0672 77.2258 17.0672H71.9113V23.4751C71.6887 23.5358 71.3342 23.5965 70.8483 23.6573C70.3828 23.718 69.9169 23.7484 69.4514 23.7484C68.9858 23.7484 68.5707 23.7079 68.2063 23.6269C67.8622 23.5662 67.5685 23.4447 67.3256 23.2625C67.0826 23.0803 66.9004 22.8272 66.7789 22.5033C66.6575 22.1793 66.5967 21.7541 66.5967 21.2278V8.01735C66.5967 7.14677 66.8497 6.45843 67.3559 5.95227C67.8622 5.44612 68.5503 5.19305 69.421 5.19305H79.5338ZM96.9287 16.2169C96.9287 17.4721 96.7365 18.5958 96.3517 19.5878C95.967 20.5596 95.4203 21.3796 94.7118 22.0477C94.0234 22.7158 93.1934 23.222 92.2216 23.5662C91.2498 23.9103 90.1665 24.0824 88.9721 24.0824C87.7777 24.0824 86.6945 23.9002 85.7227 23.5358C84.7509 23.1714 83.9106 22.6551 83.2021 21.987C82.5136 21.2986 81.9773 20.4685 81.5925 19.4967C81.2077 18.5249 81.0155 17.4317 81.0155 16.2169C81.0155 15.0224 81.2077 13.9393 81.5925 12.9675C81.9773 11.9957 82.5136 11.1757 83.2021 10.5076C83.9106 9.81922 84.7509 9.29284 85.7227 8.92841C86.6945 8.56399 87.7777 8.38177 88.9721 8.38177C90.1665 8.38177 91.2498 8.5741 92.2216 8.95878C93.1934 9.32321 94.0234 9.84959 94.7118 10.538C95.4203 11.2061 95.967 12.026 96.3517 12.9978C96.7365 13.9696 96.9287 15.0426 96.9287 16.2169ZM86.2997 16.2169C86.2997 17.4519 86.5326 18.4035 86.9982 19.0716C87.4841 19.7194 88.1522 20.0434 89.0025 20.0434C89.8528 20.0434 90.5006 19.7093 90.9461 19.0412C91.4116 18.3731 91.6446 17.4317 91.6446 16.2169C91.6446 15.0022 91.4116 14.0708 90.9461 13.423C90.4805 12.7549 89.8224 12.4208 88.9721 12.4208C88.1218 12.4208 87.4637 12.7549 86.9982 13.423C86.5326 14.0708 86.2997 15.0022 86.2997 16.2169ZM104.61 23.5662C104.408 23.6269 104.084 23.6876 103.638 23.7484C103.213 23.8091 102.768 23.8395 102.302 23.8395C101.857 23.8395 101.452 23.8091 101.087 23.7484C100.743 23.6876 100.45 23.5662 100.207 23.3839C99.9638 23.2017 99.7712 22.9588 99.6297 22.6551C99.5083 22.3312 99.4475 21.9161 99.4475 21.41V12.2993C99.4475 11.8337 99.5283 11.4389 99.6905 11.115C99.8727 10.7708 100.126 10.4671 100.45 10.2039C100.773 9.94069 101.168 9.70789 101.634 9.50542C102.12 9.28272 102.636 9.09037 103.183 8.92841C103.73 8.76646 104.296 8.64498 104.884 8.56399C105.471 8.46277 106.058 8.41214 106.645 8.41214C107.617 8.41214 108.386 8.60447 108.953 8.98915C109.52 9.35358 109.803 9.96095 109.803 10.8113C109.803 11.0947 109.763 11.3782 109.682 11.6616C109.601 11.9248 109.5 12.1678 109.378 12.3905C108.953 12.3905 108.517 12.4107 108.072 12.4512C107.627 12.4917 107.192 12.5524 106.766 12.6334C106.341 12.7144 105.936 12.8055 105.552 12.9067C105.187 12.9877 104.873 13.0889 104.61 13.2104V23.5662Z" fill="#5129A5"/>
</g>
<defs>
<clipPath id="clip0_25_313">
<rect width="135.414" height="28" fill="white"/>
</clipPath>
</defs>
</svg>
